<svg id="youtube" xmlns="http://www.w3.org/2000/svg" viewBox="0 0 112.2 112.2"><defs><style>.cls-1{fill:#e02b26;}.cls-2{fill:#fff;}</style></defs><title>youtube</title><circle id="_Контур_" data-name=" Контур " class="cls-1" cx="56.1" cy="56.1" r="56.1"/><path class="cls-2" d="M92.84,41.18s-0.73-5.14-3-7.41a10.75,10.75,0,0,0-7.51-3.16c-10.49-.75-26.23-0.75-26.23-0.75h0s-15.74,0-26.23.75a10.76,10.76,0,0,0-7.51,3.16c-2.25,2.27-3,7.41-3,7.41a112.34,112.34,0,0,0-.75,12.08v5.66A112.34,112.34,0,0,0,19.36,71s0.73,5.14,3,7.41c2.85,3,6.6,2.88,8.27,3.19,6,0.57,25.49.75,25.49,0.75s15.76,0,26.25-.78a10.75,10.75,0,0,0,7.51-3.16c2.25-2.27,3-7.41,3-7.41a112.57,112.57,0,0,0,.75-12.08V53.26A112.57,112.57,0,0,0,92.84,41.18Z"/><polygon class="cls-1" points="46.26 45.54 46.26 66.66 65.94 56.1 46.26 45.54"/></svg>